<svg width="1870" height="1627" xmlns="http://www.w3.org/2000/svg" xmlns:xlink="http://www.w3.org/1999/xlink" xml:space="preserve" overflow="hidden"><g transform="translate(-838 -284)"><g><path d="M1738.5 896.5 1609.25 896.5C1590.28 895.75 1616.41 895.673 1625.05 893.606 1633.69 893.345 1648.03 889.741 1661.48 885.305 1691.49 874.8 1688.18 875.577 1707.34 866.388 1723.18 859.114 1727.95 849.649 1738.5 841.5L1738.5 896.5Z" stroke="#000000" stroke-width="6.875" stroke-linecap="butt" stroke-linejoin="miter" stroke-miterlimit="8" stroke-opacity="1" fill="#000000" fill-rule="evenodd" fill-opacity="1"/><rect x="1271.5" y="896.5" width="467" height="400" stroke="#000000" stroke-width="6.875" stroke-linecap="butt" stroke-linejoin="miter" stroke-miterlimit="8" stroke-opacity="1" fill="#0F172A" fill-opacity="1"/><path d="M2244.5 291.5 2244.5 663.083C2240.22 717.634 2239.78 642.496 2227.98 617.663 2226.49 592.829 2205.91 551.602 2180.59 512.936 2120.61 426.643 2125.05 436.163 2072.59 381.083 2031.06 335.546 1977.02 321.821 1930.5 291.5L2244.5 291.5Z" stroke="#FFFFFF" stroke-width="6.875" stroke-linecap="butt" stroke-linejoin="miter" stroke-miterlimit="8" stroke-opacity="1" fill="#3B82F6" fill-rule="evenodd" fill-opacity="1"/><rect x="844.5" y="298.5" width="894" height="403" stroke="#000000" stroke-width="6.875" stroke-linecap="butt" stroke-linejoin="miter" stroke-miterlimit="8" stroke-opacity="1" fill="#0F172A" fill-opacity="1"/><path d="M1739.64 702.849 1736.66 767.18C1735.06 776.571 1735.54 763.557 1732.53 759.109 1732.32 754.79 1727.06 747.394 1720.48 740.38 1704.86 724.685 1705.99 726.389 1692.16 716.192 1681.23 707.784 1666.65 704.727 1654.24 698.891L1739.64 702.849Z" stroke="#000000" stroke-width="6.875" stroke-linecap="butt" stroke-linejoin="miter" stroke-miterlimit="8" stroke-opacity="1" fill="#000000" fill-rule="evenodd" fill-opacity="1"/><path d="M1784.21 300.292C2055.75 345.467 2239.08 601.116 2193.67 871.298 2158.73 1079.27 1995.45 1242.52 1786.61 1278.3Z" stroke="#FFFFFF" stroke-width="6.875" stroke-linecap="butt" stroke-linejoin="miter" stroke-miterlimit="8" stroke-opacity="1" fill="#3B82F6" fill-rule="evenodd" fill-opacity="1"/><path d="M0 551.118 512.106 0 1005 0 472.869 559 0 551.118Z" stroke="#000000" stroke-width="6.875" stroke-linecap="butt" stroke-linejoin="miter" stroke-miterlimit="8" stroke-opacity="1" fill="#0F172A" fill-rule="evenodd" fill-opacity="1" transform="matrix(-1 0 0 1 2276.5 1345.5)"/><path d="M0 411.241C2.19974 278.463 8.91787 132.778 11.1176 0L734 8.57688 345.359 417 0 411.241Z" stroke="#FFFFFF" stroke-width="6.875" stroke-linecap="butt" stroke-linejoin="miter" stroke-miterlimit="8" stroke-opacity="1" fill="#3B82F6" fill-rule="evenodd" fill-opacity="1" transform="matrix(-1 0 0 1 2702.5 1487.5)"/><rect x="844.5" y="752.5" width="389" height="1152" stroke="#000000" stroke-width="6.875" stroke-linecap="butt" stroke-linejoin="miter" stroke-miterlimit="8" stroke-opacity="1" fill="#0F172A" fill-opacity="1"/><rect x="2297.5" y="298.5" width="397" height="401" stroke="#FFFFFF" stroke-width="6.875" stroke-linecap="butt" stroke-linejoin="miter" stroke-miterlimit="8" stroke-opacity="1" fill="#3B82F6" fill-opacity="1"/></g></g></svg>